<?xml version="1.0" standalone="no"?>
<!DOCTYPE svg PUBLIC "-//W3C//DTD SVG 20010904//EN"
 "http://www.w3.org/TR/2001/REC-SVG-20010904/DTD/svg10.dtd">
<svg version="1.0" xmlns="http://www.w3.org/2000/svg"
 width="1280.000000pt" height="640.000000pt" viewBox="0 0 1280.000000 640.000000"
 preserveAspectRatio="xMidYMid meet">
<metadata>
Created by potrace 1.15, written by Peter Selinger 2001-2017
</metadata>
<g transform="translate(0.000000,640.000000) scale(0.100000,-0.100000)"
fill="#000000" stroke="none">
<path d="M12281 6318 c-1 -46 -18 -91 -31 -83 -12 7 -14 -8 -2 -19 14 -15 0
-203 -29 -391 -16 -104 -52 -345 -80 -534 -46 -320 -52 -346 -74 -367 -30 -28
-32 -47 -6 -65 11 -8 22 -30 26 -49 5 -30 6 -380 2 -450 -2 -29 -39 -54 -66
-45 -23 7 -31 -12 -25 -59 3 -26 0 -38 -11 -42 -10 -4 -15 -19 -15 -44 0 -29
4 -39 20 -43 11 -3 20 -13 20 -23 0 -23 47 -84 66 -84 12 0 14 -32 14 -200 l0
-200 -26 -11 c-15 -5 -35 -7 -45 -4 -14 5 -20 0 -25 -19 -3 -14 -4 -33 -1 -41
4 -8 0 -21 -8 -29 -19 -18 -20 -72 -2 -83 7 -4 23 -29 36 -55 12 -26 26 -48
31 -50 5 -2 10 -320 12 -708 3 -699 3 -705 -17 -705 -24 0 -33 -38 -14 -61 8
-9 9 -33 5 -72 -10 -88 -113 -484 -128 -493 -7 -5 -26 -9 -42 -9 -21 0 -27 4
-22 15 4 11 -5 16 -34 21 -33 5 -46 16 -80 60 -68 90 -166 145 -285 159 -33 4
-67 14 -76 22 -14 12 -17 12 -22 0 -3 -8 -23 -17 -44 -21 -21 -4 -72 -19 -115
-33 -66 -23 -78 -25 -93 -13 -9 7 -14 21 -12 31 3 9 1 23 -4 30 -6 9 -9 2 -9
-23 0 -35 -2 -38 -42 -48 -80 -21 -113 -32 -129 -46 -13 -11 -19 -11 -37 2
-12 8 -22 22 -22 30 0 8 -8 14 -17 14 -10 0 -30 6 -45 14 -15 8 -53 20 -85 26
-32 6 -66 16 -75 21 -12 6 -25 5 -39 -3 -18 -11 -23 -10 -39 10 -10 12 -20 18
-22 13 -1 -5 -12 -11 -23 -13 -20 -3 -20 3 -23 407 -2 387 -1 411 17 450 11
22 26 49 34 59 11 15 12 26 4 50 -6 17 -11 37 -13 44 -2 6 -15 12 -29 12 l-25
0 0 135 c0 74 4 135 8 135 4 0 20 24 36 53 25 49 27 58 16 95 -9 35 -15 42
-35 42 l-25 0 0 173 c0 138 3 177 15 194 13 19 13 23 1 30 -15 8 -32 119 -81
523 -9 74 -21 139 -25 144 -10 11 -10 16 -60 -373 -30 -232 -45 -318 -56 -326
-13 -9 -13 -14 0 -40 13 -24 16 -65 16 -192 0 -178 3 -168 -58 -163 -21 1 -22
0 -10 -19 10 -17 10 -25 1 -40 -10 -16 -8 -28 14 -68 15 -26 33 -53 40 -58 10
-8 13 -41 11 -140 l-3 -130 -30 0 c-27 -1 -30 -4 -27 -29 2 -16 -2 -32 -9 -36
-9 -6 -7 -15 7 -36 55 -81 54 -75 54 -503 0 -418 -4 -491 -26 -491 -8 0 -11
-6 -7 -16 3 -9 -5 -27 -22 -44 -23 -24 -42 -32 -114 -46 -8 -1 -40 23 -70 55
-58 60 -129 103 -191 116 -104 21 -109 23 -113 63 l-4 37 -1 -41 -2 -40 -73
-17 c-41 -10 -85 -28 -102 -42 -17 -13 -35 -24 -42 -25 -6 0 -31 -22 -53 -49
-38 -45 -47 -50 -96 -57 l-55 -6 -57 60 c-62 66 -132 104 -214 116 -26 4 -50
11 -53 16 -3 5 -18 2 -33 -6 -15 -7 -34 -14 -43 -14 -64 0 -166 -68 -229 -153
-58 -79 -101 -76 -158 11 -49 76 -116 114 -254 146 -23 5 -28 12 -29 39 l-2
32 -6 -34 c-6 -32 -10 -35 -68 -51 -34 -9 -72 -24 -85 -34 -13 -9 -37 -26 -54
-37 -17 -11 -48 -44 -68 -74 -27 -41 -42 -55 -60 -55 -40 0 -54 9 -91 61 -55
77 -123 118 -237 143 -21 5 -28 13 -31 39 l-4 32 -1 -32 c-2 -29 -6 -33 -44
-43 -87 -22 -109 -32 -150 -67 -24 -20 -57 -56 -74 -82 -60 -87 -90 -86 -149
5 -48 74 -117 116 -227 139 -21 4 -28 12 -31 38 l-4 32 -1 -32 c-2 -27 -7 -34
-29 -39 -109 -24 -170 -65 -228 -151 -15 -24 -30 -43 -34 -44 -3 0 -15 -2 -26
-4 -34 -7 -54 5 -71 41 -32 67 -100 114 -219 150 -22 7 -32 17 -36 39 l-7 30
-1 -28 c-1 -29 -11 -36 -88 -56 -23 -6 -63 -27 -88 -46 l-45 -35 -44 34 c-25
18 -67 39 -95 46 -45 11 -51 15 -52 38 -2 24 -2 25 -6 4 -2 -12 -12 -26 -21
-31 -29 -14 -84 -21 -96 -12 -6 5 -27 11 -46 13 -33 3 -35 5 -41 48 -6 42 -6
43 -7 9 -2 -39 -3 -39 -118 -89 -50 -22 -52 -22 -73 -4 -11 10 -21 25 -21 33
0 12 -2 12 -12 -2 -9 -12 -17 -14 -28 -7 -13 8 -15 61 -18 361 -2 311 -1 357
14 398 10 25 20 49 24 53 3 5 4 24 2 43 -3 26 -9 35 -21 33 -25 -4 -29 211 -5
262 9 19 20 42 24 50 4 8 5 29 3 47 -4 23 -12 33 -29 37 -24 6 -24 8 -24 120
0 63 4 116 8 118 4 2 17 22 28 44 26 54 22 112 -10 116 -20 3 -21 8 -24 143
-2 94 1 147 9 162 9 16 9 26 1 35 -8 11 -72 520 -72 578 0 9 -3 10 -8 5 -5 -6
-15 -68 -21 -140 -7 -71 -16 -164 -21 -205 -5 -41 -12 -112 -16 -158 -5 -59
-11 -85 -22 -91 -12 -7 -13 -12 -5 -23 24 -30 27 -318 3 -303 -9 6 -19 -13
-34 -67 -6 -20 -1 -38 19 -74 25 -44 27 -57 26 -148 -1 -84 -4 -102 -20 -112
-29 -21 -34 -80 -9 -128 18 -35 21 -56 19 -145 -2 -64 -7 -112 -16 -125 -25
-41 -26 -74 -4 -119 21 -39 22 -56 22 -249 -1 -198 -8 -264 -24 -208 l-7 25
-1 -26 c-1 -17 -10 -30 -27 -39 -14 -8 -35 -27 -46 -42 -17 -25 -26 -28 -74
-28 l-54 0 0 61 c0 33 5 69 10 79 9 17 1 29 -53 82 -36 35 -72 69 -81 76 -9 7
-17 25 -17 40 -1 23 -2 22 -8 -7 -4 -25 -15 -40 -39 -54 -32 -19 -34 -19 -92
-1 l-59 19 -3 460 -3 460 32 78 c26 64 30 85 25 124 -5 34 -12 47 -25 49 -11
1 -20 4 -22 6 -2 2 -5 76 -6 164 -2 111 0 166 8 175 6 8 15 28 19 44 4 17 10
35 14 40 13 17 22 75 12 75 -5 0 -9 14 -8 32 1 28 -3 33 -32 40 l-32 9 0 153
c0 116 3 156 13 165 8 6 26 43 42 82 20 52 24 74 16 82 -6 6 -11 25 -11 42 0
25 -6 33 -30 42 l-30 11 0 200 c0 165 3 202 15 212 20 16 19 49 -1 71 -16 18
-26 94 -74 554 -25 244 -30 279 -40 268 -7 -7 -36 -256 -76 -643 -11 -108 -20
-156 -36 -187 -22 -42 -22 -42 -3 -64 18 -19 20 -37 20 -214 0 -106 -3 -196
-7 -200 -3 -4 -14 -8 -25 -9 -14 -2 -21 -18 -31 -70 -13 -64 -12 -69 10 -114
13 -26 32 -60 42 -75 17 -25 18 -43 14 -164 -4 -97 -9 -138 -19 -143 -7 -5
-16 -7 -20 -4 -12 7 -19 -12 -29 -74 -9 -55 -8 -63 20 -120 29 -61 30 -66 30
-217 0 -122 -3 -155 -13 -155 -18 0 -34 -36 -40 -88 -4 -36 1 -57 29 -115 l34
-71 -1 -156 c-1 -220 -13 -497 -21 -505 -3 -4 -24 5 -45 19 -20 14 -43 26 -49
26 -20 0 -44 36 -44 68 0 18 -4 32 -10 32 -5 0 -10 -13 -10 -28 0 -34 -27 -61
-88 -87 -39 -17 -44 -17 -59 -2 -20 20 -30 152 -14 197 14 41 5 58 -57 99 -27
19 -61 53 -76 77 -114 180 -379 361 -571 389 -35 6 -50 14 -63 34 -9 14 -33
42 -54 62 -21 20 -38 46 -38 57 0 12 -5 22 -10 22 -6 0 -8 11 -4 25 4 15 2 25
-5 25 -6 0 -12 -12 -12 -27 -1 -16 -2 -32 -4 -38 -1 -5 -3 -18 -3 -28 -1 -9
-16 -26 -33 -36 -17 -11 -39 -32 -49 -49 -15 -24 -27 -31 -67 -36 -193 -28
-416 -152 -528 -294 -56 -71 -75 -69 -75 7 0 43 7 72 25 108 29 55 26 117 -6
134 -17 9 -19 23 -19 119 0 60 5 121 11 136 7 19 7 35 0 49 -6 11 -24 143 -41
294 -27 248 -40 329 -40 260 0 -41 -29 -431 -36 -479 -3 -25 -13 -56 -21 -69
-11 -17 -12 -26 -4 -34 7 -7 11 -61 11 -144 0 -130 -2 -138 -31 -135 -4 1 -9
-17 -12 -39 -4 -31 0 -52 19 -86 20 -39 24 -60 24 -141 0 -89 -1 -94 -20 -89
-13 3 -20 0 -20 -10 0 -8 5 -11 10 -8 6 3 10 -1 10 -10 0 -10 -5 -13 -12 -9
-7 5 -8 3 -3 -6 4 -7 2 -15 -4 -19 -9 -6 -6 -20 9 -55 12 -28 20 -70 20 -101
0 -77 -20 -76 -100 6 -38 38 -77 69 -94 73 -33 8 -55 32 -56 59 0 9 -5 17 -12
17 -6 0 -8 -3 -5 -6 16 -17 -27 -61 -70 -73 -59 -15 -109 -65 -125 -124 -9
-36 -18 -49 -41 -58 -23 -10 -27 -16 -21 -33 4 -12 9 -92 11 -178 l4 -158 -24
0 c-14 0 -30 -6 -36 -14 -9 -11 -21 -11 -76 2 -42 10 -65 21 -65 30 0 17 -85
103 -94 95 -3 -4 -7 9 -7 28 -1 34 -1 34 -8 5 -4 -20 -18 -36 -46 -52 -24 -13
-45 -34 -52 -53 -12 -28 -17 -31 -57 -31 -42 0 -44 -1 -40 -25 3 -20 -3 -29
-36 -50 -23 -14 -45 -37 -50 -50 -8 -20 -16 -25 -45 -25 -36 0 -43 -8 -24 -27
7 -7 10 -41 8 -92 -2 -45 -1 -81 4 -81 4 0 3 -9 -3 -20 -11 -20 -19 -20 -233
-18 l-222 3 0 69 c0 47 -4 71 -12 73 -10 4 -13 111 -13 491 0 478 0 486 22
531 12 25 28 50 35 54 10 6 10 13 3 27 -5 10 -10 28 -10 40 0 22 -21 50 -39
50 -6 0 -11 54 -13 141 -3 133 -2 144 20 175 12 18 22 37 22 42 0 5 7 15 15
22 11 9 12 17 5 30 -6 10 -10 28 -10 39 0 27 -29 61 -46 54 -11 -4 -14 19 -14
118 0 68 -3 134 -6 147 -5 16 -3 22 7 20 8 -2 13 3 11 10 -1 6 2 12 8 12 5 0
10 7 10 15 0 8 5 15 10 15 6 0 10 6 10 14 0 8 7 17 15 20 12 4 14 10 5 25 -5
11 -10 30 -10 43 -1 27 -25 63 -43 63 -9 0 -13 44 -17 158 -5 154 1 217 20
217 16 0 11 29 -9 58 -19 26 -22 48 -62 422 -4 41 -15 134 -23 205 -9 72 -16
150 -17 175 -2 51 2 85 -47 -355 -17 -148 -34 -301 -38 -340 -4 -44 -14 -80
-26 -98 -20 -27 -20 -29 -2 -49 17 -17 19 -41 22 -187 4 -146 2 -170 -13 -184
-9 -9 -25 -17 -34 -17 -29 0 -35 -76 -10 -118 10 -18 19 -39 19 -46 0 -7 9
-25 20 -39 17 -22 20 -40 20 -144 0 -128 -6 -149 -38 -139 -18 6 -22 1 -31
-43 -8 -40 -8 -56 4 -78 46 -88 53 -117 54 -239 1 -66 -1 -128 -5 -137 -3 -10
-17 -17 -32 -17 -14 0 -23 -2 -20 -6 3 -3 2 -21 -2 -40 -6 -25 -4 -44 8 -67
42 -83 43 -89 42 -476 -1 -206 -3 -378 -5 -381 -2 -4 -6 -72 -9 -152 -4 -101
-11 -156 -22 -184 -9 -21 -18 -60 -20 -87 -4 -61 -8 -67 -49 -67 -41 0 -131
-32 -194 -70 -41 -23 -47 -31 -53 -71 -3 -24 -7 -311 -7 -636 l-1 -593 6400 0
6400 0 0 390 c0 304 -3 390 -12 392 -13 1 -37 3 -91 6 l-28 2 4 113 c4 124 6
137 27 163 12 13 12 18 3 21 -23 8 -15 72 13 109 l26 34 -38 2 c-22 1 -54 2
-72 3 -18 1 -35 5 -39 8 -3 4 -30 105 -60 224 -56 230 -74 345 -54 357 19 12
12 42 -14 54 l-25 11 -2 698 -3 698 47 95 c56 115 61 129 49 144 -5 6 -11 29
-13 51 l-3 39 -47 -3 -48 -3 0 174 c0 95 -3 183 -6 195 -4 16 3 31 29 57 19
19 41 52 47 73 7 21 18 45 25 53 19 22 29 81 16 89 -6 4 -11 30 -12 59 -2 42
-6 52 -20 52 -9 0 -19 -7 -23 -15 -6 -16 -41 -21 -50 -7 -7 11 -7 437 -1 486
3 21 15 51 25 67 26 36 25 56 -4 63 -14 3 -26 16 -29 28 -9 37 -44 278 -92
642 -26 197 -50 343 -56 347 -7 4 -9 14 -4 25 5 11 7 23 6 29 -2 5 -2 17 -2
25 0 8 1 33 1 55 0 22 7 63 17 92 13 40 14 57 6 75 -11 21 -12 21 -12 -14z"/>
<path d="M1940 2575 c0 -8 5 -15 10 -15 6 0 10 7 10 15 0 8 -4 15 -10 15 -5 0
-10 -7 -10 -15z"/>
<path d="M8952 1570 c0 -14 2 -19 5 -12 2 6 2 18 0 25 -3 6 -5 1 -5 -13z"/>
</g>
</svg>
